<?xml version="1.0" encoding="UTF-8" standalone="no"?>
<!DOCTYPE svg PUBLIC "-//W3C//DTD SVG 1.1//EN" "http://www.w3.org/Graphics/SVG/1.1/DTD/svg11.dtd">
<!-- Generiert durch Microsoft Visio, SVG Export swiyu-issuer.svg Page-1 -->
<svg xmlns="http://www.w3.org/2000/svg" xmlns:xlink="http://www.w3.org/1999/xlink" xmlns:ev="http://www.w3.org/2001/xml-events"
		xmlns:v="http://schemas.microsoft.com/visio/2003/SVGExtensions/" width="11.6929in" height="8.26772in"
		viewBox="0 0 841.89 595.276" xml:space="preserve" color-interpolation-filters="sRGB" class="st16">
	<v:documentProperties v:langID="2055" v:metric="true" v:viewMarkup="false">
		<v:userDefs>
			<v:ud v:nameU="msvNoAutoConnect" v:val="VT0(1):26"/>
		</v:userDefs>
	</v:documentProperties>

	<style type="text/css">
	<![CDATA[
		.st1 {fill:#ffffff;stroke:none;stroke-linecap:round;stroke-linejoin:round;stroke-width:0.75}
		.st2 {fill:#ffffff;stroke:#000000;stroke-dasharray:0.75,1.5;stroke-linecap:round;stroke-linejoin:round;stroke-width:0.75}
		.st3 {fill:#000000;font-family:Arial;font-size:1.00001em;font-style:italic}
		.st4 {fill:#f2f2f2;stroke:none;stroke-linecap:round;stroke-linejoin:round;stroke-width:0.75}
		.st5 {fill:#000000;font-family:Arial;font-size:1.00001em}
		.st6 {font-size:1em}
		.st7 {fill:#ffffff;stroke:#000000;stroke-linecap:round;stroke-linejoin:round;stroke-width:0.75}
		.st8 {fill:#000000;stroke:none;stroke-linecap:butt;stroke-width:0.95625}
		.st9 {fill:none;stroke:none;stroke-linecap:round;stroke-linejoin:round;stroke-width:0.75}
		.st10 {fill:#000000;font-family:Arial;font-size:0.833336em}
		.st11 {stroke:#000000;stroke-linecap:round;stroke-linejoin:round;stroke-width:0.75}
		.st12 {marker-end:url(#mrkr3-90);stroke:#000000;stroke-dasharray:1,2;stroke-linecap:round;stroke-linejoin:round;stroke-width:1}
		.st13 {fill:#000000;fill-opacity:1;stroke:#000000;stroke-opacity:1;stroke-width:0.28409090909091}
		.st14 {marker-end:url(#mrkr11-114);marker-start:url(#mrkr11-112);stroke:#000000;stroke-linecap:round;stroke-linejoin:round;stroke-width:0.75}
		.st15 {fill:#000000;fill-opacity:1;stroke:#000000;stroke-opacity:1;stroke-width:0.22935779816514}
		.st16 {fill:none;fill-rule:evenodd;font-size:12px;overflow:visible;stroke-linecap:square;stroke-miterlimit:3}
	]]>
	</style>

	<defs id="Markers">
		<g id="lend3">
			<path d="M 2 1 L 0 0 L 2 -1 " style="stroke-linecap:round;stroke-linejoin:round;fill:none"/>
		</g>
		<marker id="mrkr3-90" class="st13" v:arrowType="3" v:arrowSize="2" orient="auto" markerUnits="strokeWidth"
				overflow="visible">
			<use xlink:href="#lend3" transform="scale(-3.52,-3.52) "/>
		</marker>
		<g id="lend11">
			<path d="M 0.75 -0.75 L 0.75 0.75 L -0.75 0.75 L -0.75 -0.75 L 0.75 -0.75 " style="stroke:none"/>
		</g>
		<marker id="mrkr11-112" class="st15" v:arrowType="11" v:arrowSize="2" v:setback="2.79" refX="2.79" orient="auto"
				markerUnits="strokeWidth" overflow="visible">
			<use xlink:href="#lend11" transform="scale(4.36) "/>
		</marker>
		<marker id="mrkr11-114" class="st15" v:arrowType="11" v:arrowSize="2" v:setback="3.27" refX="-3.27" orient="auto"
				markerUnits="strokeWidth" overflow="visible">
			<use xlink:href="#lend11" transform="scale(-4.36,-4.36) "/>
		</marker>
	</defs>
	<g v:mID="0" v:index="1" v:groupContext="foregroundPage">
		<title>Zeichenblatt-1</title>
		<v:pageProperties v:drawingScale="0.0393701" v:pageScale="0.0393701" v:drawingUnits="24" v:shadowOffsetX="8.50394"
				v:shadowOffsetY="-8.50394"/>
		<g id="shape46-1" v:mID="46" v:groupContext="shape" transform="translate(28.3465,-22.6772)">
			<title>Tabelle.46</title>
			<rect x="0" y="119.055" width="737.008" height="476.22" class="st1"/>
		</g>
		<g id="shape45-3" v:mID="45" v:groupContext="shape" transform="translate(39.685,-28.9134)">
			<title>Tabelle.45</title>
			<desc>Key</desc>
			<v:textBlock v:margins="rect(4,4,4,4)" v:tabSpace="42.5197" v:verticalAlign="0"/>
			<v:textRect cx="360" cy="564.378" width="720.01" height="61.7953"/>
			<path d="M0 595.28 L720 595.28 L720 533.48 L0 533.48 L0 595.28 Z" class="st2"/>
			<text x="4" y="548.28" class="st3" v:langID="2055"><v:paragraph/><v:tabList/>Key</text>		</g>
		<g id="shape16-6" v:mID="16" v:groupContext="shape" transform="translate(31.3836,-233.858)">
			<title>Tabelle.16</title>
			<desc>Municipal or cantonal IT landscape</desc>
			<v:textBlock v:margins="rect(4,4,4,4)" v:tabSpace="42.5197" v:verticalAlign="0"/>
			<v:textRect cx="69.3476" cy="508.961" width="138.7" height="172.63"/>
			<rect x="0" y="422.646" width="138.695" height="172.63" class="st4"/>
			<text x="5.65" y="437.45" class="st5" v:langID="2055"><v:paragraph v:horizAlign="1"/><v:tabList/>Municipal or cantonal IT <tspan
						x="41.99" dy="1.2em" class="st6">landscape </tspan> </text>		</g>
		<g id="shape15-10" v:mID="15" v:groupContext="shape" transform="translate(640.63,-221.102)">
			<title>Tabelle.15</title>
			<desc>SWIYU Trust Infrastructure</desc>
			<v:textBlock v:margins="rect(4,4,4,4)" v:tabSpace="42.5197" v:verticalAlign="0"/>
			<v:textRect cx="57.8268" cy="500.315" width="115.66" height="189.921"/>
			<rect x="0" y="405.354" width="115.654" height="189.921" class="st4"/>
			<text x="22.83" y="420.15" class="st5" v:langID="2055"><v:paragraph v:horizAlign="1"/><v:tabList/>SWIYU Trust <tspan
						x="22.48" dy="1.2em" class="st6">Infrastructure</tspan></text>		</g>
		<g id="shape1-14" v:mID="1" v:groupContext="shape" transform="translate(226.772,-235.276)">
			<title>Tabelle.1</title>
			<desc>swiyu-issuer</desc>
			<v:textBlock v:margins="rect(4,4,4,4)" v:tabSpace="42.5197" v:verticalAlign="2"/>
			<v:textRect cx="171.78" cy="525.827" width="343.56" height="138.898"/>
			<rect x="0" y="456.378" width="343.559" height="138.898" class="st7"/>
			<text x="138.77" y="587.68" class="st5" v:langID="2055"><v:paragraph v:horizAlign="1"/><v:tabList/>swiyu-issuer</text>		</g>
		<g id="shape2-17" v:mID="2" v:groupContext="shape" transform="translate(239.528,-282.047)">
			<title>Tabelle.2</title>
			<desc>swiyu-issuer-mgmtapi</desc>
			<v:textBlock v:margins="rect(4,4,4,4)" v:tabSpace="42.5197"/>
			<v:textRect cx="49.6063" cy="565.512" width="99.22" height="59.5276"/>
			<rect x="0" y="535.748" width="99.2126" height="59.5276" class="st7"/>
			<text x="14.6" y="561.91" class="st5" v:langID="2055"><v:paragraph v:horizAlign="1"/><v:tabList/>swiyu-issuer-<tspan
						x="26.6" dy="1.2em" class="st6">mgmtapi</tspan></text>		</g>
		<g id="shape3-21" v:mID="3" v:groupContext="shape" transform="translate(351.496,-282.047)">
			<title>Tabelle.3</title>
			<desc>swiyu-issuer-oidcapi</desc>
			<v:textBlock v:margins="rect(4,4,4,4)" v:tabSpace="42.5197"/>
			<v:textRect cx="49.6063" cy="565.512" width="99.22" height="59.5276"/>
			<rect x="0" y="535.748" width="99.2126" height="59.5276" class="st7"/>
			<text x="14.6" y="561.91" class="st5" v:langID="2055"><v:paragraph v:horizAlign="1"/><v:tabList/>swiyu-issuer-<tspan
						x="30.59" dy="1.2em" class="st6">oidcapi</tspan></text>		</g>
		<g id="shape4-25" v:mID="4" v:groupContext="shape" transform="translate(463.465,-282.047)">
			<title>Tabelle.4</title>
			<desc>swiyu-issuer-cli</desc>
			<v:textBlock v:margins="rect(4,4,4,4)" v:tabSpace="42.5197"/>
			<v:textRect cx="43.2283" cy="565.512" width="86.46" height="59.5276"/>
			<rect x="0" y="535.748" width="86.4567" height="59.5276" class="st7"/>
			<text x="8.22" y="561.91" class="st5" v:langID="2055"><v:paragraph v:horizAlign="1"/><v:tabList/>swiyu-issuer-<tspan
						x="37.56" dy="1.2em" class="st6">cli</tspan></text>		</g>
		<g id="shape5-29" v:mID="5" v:groupContext="shape" transform="translate(654.094,-313.532)">
			<title>Tabelle.5</title>
			<desc>SWIYU Identifier registry</desc>
			<v:textBlock v:margins="rect(4,4,4,4)" v:tabSpace="42.5197"/>
			<v:textRect cx="43.2283" cy="565.512" width="86.46" height="59.5276"/>
			<rect x="0" y="535.748" width="86.4567" height="59.5276" class="st7"/>
			<text x="23.56" y="554.71" class="st5" v:langID="2055"><v:paragraph v:horizAlign="1"/><v:tabList/>SWIYU<v:newlineChar/><tspan
						x="20.22" dy="1.2em" class="st6">Identifier<v:newlineChar/></tspan><tspan x="23.56" dy="1.2em" class="st6">registry</tspan></text>		</g>
		<g id="shape7-34" v:mID="7" v:groupContext="shape" transform="translate(654.094,-239.831)">
			<title>Tabelle.7</title>
			<desc>SWIYU Status registry</desc>
			<v:textBlock v:margins="rect(4,4,4,4)" v:tabSpace="42.5197"/>
			<v:textRect cx="43.2283" cy="565.512" width="86.46" height="59.5276"/>
			<rect x="0" y="535.748" width="86.4567" height="59.5276" class="st7"/>
			<text x="23.56" y="554.71" class="st5" v:langID="2055"><v:paragraph v:horizAlign="1"/><v:tabList/>SWIYU<v:newlineChar/><tspan
						x="26.22" dy="1.2em" class="st6">Status<v:newlineChar/></tspan><tspan x="23.56" dy="1.2em" class="st6">registry</tspan></text>		</g>
		<g id="shape8-39" v:mID="8" v:groupContext="shape" transform="translate(226.772,-153.071)">
			<title>Tabelle.8</title>
			<desc>database (PostgreSQL)</desc>
			<v:textBlock v:margins="rect(4,4,4,4)" v:tabSpace="42.5197"/>
			<v:textRect cx="73.7008" cy="572.598" width="147.41" height="45.3543"/>
			<rect x="0" y="549.921" width="147.402" height="45.3543" class="st7"/>
			<text x="49.01" y="569" class="st5" v:langID="2055"><v:paragraph v:horizAlign="1"/><v:tabList/>database<v:newlineChar/><tspan
						x="37.02" dy="1.2em" class="st6">(PostgreSQL)</tspan></text>		</g>
		<g id="shape9-43" v:mID="9" v:groupContext="shape" transform="translate(422.929,-153.071)">
			<title>Tabelle.9</title>
			<desc>software vault (HashiCorp Vault)</desc>
			<v:textBlock v:margins="rect(4,4,4,4)" v:tabSpace="42.5197"/>
			<v:textRect cx="73.7008" cy="572.598" width="147.41" height="45.3543"/>
			<rect x="0" y="549.921" width="147.402" height="45.3543" class="st7"/>
			<text x="36.68" y="569" class="st5" v:langID="2055"><v:paragraph v:horizAlign="1"/><v:tabList/>software vault<v:newlineChar/><tspan
						x="26.02" dy="1.2em" class="st6">(HashiCorp Vault)</tspan></text>		</g>
		<g id="shape10-47" v:mID="10" v:groupContext="shape" transform="translate(422.929,-98.3695)">
			<title>Tabelle.10</title>
			<desc>HSM</desc>
			<v:textBlock v:margins="rect(4,4,4,4)" v:tabSpace="42.5197"/>
			<v:textRect cx="73.7008" cy="580.535" width="147.41" height="29.4803"/>
			<rect x="0" y="565.795" width="147.402" height="29.4803" class="st7"/>
			<text x="60.37" y="584.14" class="st5" v:langID="2055"><v:paragraph v:horizAlign="1"/><v:tabList/>HSM</text>		</g>
		<g id="shape11-50" v:mID="11" v:groupContext="shape" transform="translate(45.5568,-283.465)">
			<title>Tabelle.11</title>
			<desc>Business Application</desc>
			<v:textBlock v:margins="rect(4,4,4,4)" v:tabSpace="42.5197"/>
			<v:textRect cx="49.6063" cy="565.228" width="99.22" height="60.0945"/>
			<rect x="0" y="535.181" width="99.2126" height="60.0945" class="st7"/>
			<text x="25.26" y="561.63" class="st5" v:langID="2055"><v:paragraph v:horizAlign="1"/><v:tabList/>Business<v:newlineChar/><tspan
						x="20.25" dy="1.2em" class="st6">Application</tspan></text>		</g>
		<g id="group12-54" transform="translate(385.512,-432)" v:mID="12" v:groupContext="group">
			<title>Tabelle.12</title>
			<g id="shape13-55" v:mID="13" v:groupContext="shape">
				<title>Tabelle.13</title>
				<path d="M0 566.5 C0 564.24 1.84 562.39 4.11 562.39 L18.5 562.39 C20.76 562.39 22.61 564.24 22.61 566.5 L22.61 591.17
							 C22.61 593.43 20.76 595.28 18.5 595.28 L4.11 595.28 C1.84 595.28 0 593.43 0 591.17 L0 566.5 ZM4.11 566.5
							 L4.11 586.03 L18.5 586.03 L18.5 566.5 L4.11 566.5 ZM11.3 592.71 C12.44 592.71 13.36 591.79 13.36 590.65
							 C13.36 589.51 12.44 588.6 11.3 588.6 C10.17 588.6 9.25 589.51 9.25 590.65 C9.25 591.79 10.17 592.71
							 11.3 592.71 Z" class="st8"/>
			</g>
		</g>
		<g id="shape14-57" v:mID="14" v:groupContext="shape" transform="translate(413.858,-435.462)">
			<title>Tabelle.14</title>
			<desc>holders wallet</desc>
			<v:textBlock v:margins="rect(4,4,4,4)" v:tabSpace="42.5197"/>
			<v:textRect cx="30.1035" cy="582.296" width="60.21" height="25.9584"/>
			<rect x="0" y="569.317" width="60.207" height="25.9584" class="st9"/>
			<text x="4" y="578.7" class="st5" v:langID="2055"><v:paragraph/><v:tabList/>holders <v:newlineChar/><tspan x="4"
						dy="1.2em" class="st6">wallet</tspan></text>		</g>
		<g id="shape17-61" v:mID="17" v:groupContext="shape" transform="translate(202.299,-303.307)">
			<title>Tabelle.17</title>
			<desc>SI</desc>
			<v:textBlock v:margins="rect(0,0,0,0)" v:tabSpace="42.5197"/>
			<v:textRect cx="8.50394" cy="586.772" width="17.01" height="17.0079"/>
			<ellipse cx="8.50394" cy="586.772" rx="8.50394" ry="8.50394" class="st7"/>
			<text x="3.78" y="589.77" class="st10" v:langID="2055"><v:paragraph v:horizAlign="1"/><v:tabList/>SI</text>		</g>
		<g id="shape18-64" v:mID="18" v:groupContext="shape" transform="translate(388.535,-382.677)">
			<title>Tabelle.18</title>
			<desc>SI</desc>
			<v:textBlock v:margins="rect(0,0,0,0)" v:tabSpace="42.5197"/>
			<v:textRect cx="8.50394" cy="586.772" width="17.01" height="17.0079"/>
			<ellipse cx="8.50394" cy="586.772" rx="8.50394" ry="8.50394" class="st7"/>
			<text x="3.78" y="589.77" class="st10" v:langID="2055"><v:paragraph v:horizAlign="1"/><v:tabList/>SI</text>		</g>
		<g id="shape19-67" v:mID="19" v:groupContext="shape" transform="translate(616.252,-334.792)">
			<title>Tabelle.19</title>
			<desc>SI</desc>
			<v:textBlock v:margins="rect(0,0,0,0)" v:tabSpace="42.5197"/>
			<v:textRect cx="8.50394" cy="586.772" width="17.01" height="17.0079"/>
			<ellipse cx="8.50394" cy="586.772" rx="8.50394" ry="8.50394" class="st7"/>
			<text x="3.78" y="589.77" class="st10" v:langID="2055"><v:paragraph v:horizAlign="1"/><v:tabList/>SI</text>		</g>
		<g id="shape20-70" v:mID="20" v:groupContext="shape" transform="translate(616.252,-261.091)">
			<title>Tabelle.20</title>
			<desc>SI</desc>
			<v:textBlock v:margins="rect(0,0,0,0)" v:tabSpace="42.5197"/>
			<v:textRect cx="8.50394" cy="586.772" width="17.01" height="17.0079"/>
			<ellipse cx="8.50394" cy="586.772" rx="8.50394" ry="8.50394" class="st7"/>
			<text x="3.78" y="589.77" class="st10" v:langID="2055"><v:paragraph v:horizAlign="1"/><v:tabList/>SI</text>		</g>
		<g id="shape21-73" v:mID="21" v:groupContext="shape" transform="translate(219.292,-312.313)">
			<title>Tabelle.21</title>
			<path d="M0 595.28 L20.24 595.28" class="st11"/>
		</g>
		<g id="shape22-76" v:mID="22" v:groupContext="shape" transform="translate(992.678,212.591) rotate(90)">
			<title>Tabelle.22</title>
			<path d="M0 595.28 L41.11 595.28" class="st11"/>
		</g>
		<g id="shape23-79" v:mID="23" v:groupContext="shape" transform="translate(633.259,-343.197)">
			<title>Tabelle.23</title>
			<path d="M0 595.28 L20.84 595.28" class="st11"/>
		</g>
		<g id="shape24-82" v:mID="24" v:groupContext="shape" transform="translate(633.26,-269.543)">
			<title>Tabelle.24</title>
			<path d="M0 595.28 L20.83 595.28" class="st11"/>
		</g>
		<g id="shape25-85" v:mID="25" v:groupContext="shape" transform="translate(144.769,-311.811)">
			<title>Tabelle.25</title>
			<path d="M0 595.28 L50.37 595.28" class="st12"/>
		</g>
		<g id="shape26-91" v:mID="26" v:groupContext="shape" transform="translate(992.126,163.276) rotate(90)">
			<title>Tabelle.26</title>
			<path d="M0 595.28 L26.54 595.28" class="st12"/>
		</g>
		<g id="shape27-96" v:mID="27" v:groupContext="shape" transform="translate(570.331,-343.11)">
			<title>Tabelle.27</title>
			<path d="M0 595.28 L39.12 595.28" class="st12"/>
		</g>
		<g id="shape28-101" v:mID="28" v:groupContext="shape" transform="translate(570.331,-269.291)">
			<title>Tabelle.28</title>
			<path d="M0 595.28 L39.12 595.28" class="st12"/>
		</g>
		<g id="shape29-106" v:mID="29" v:groupContext="shape" transform="translate(895.748,360) rotate(90)">
			<title>Tabelle.29</title>
			<path d="M2.09 595.28 L2.45 595.28 L34.4 595.28" class="st14"/>
		</g>
		<g id="shape30-115" v:mID="30" v:groupContext="shape" transform="translate(1088.5,360) rotate(90)">
			<title>Tabelle.30</title>
			<path d="M2.09 595.28 L2.45 595.28 L34.4 595.28" class="st14"/>
		</g>
		<g id="shape31-122" v:mID="31" v:groupContext="shape" transform="translate(1088.5,442.205) rotate(90)">
			<title>Tabelle.31</title>
			<path d="M2.09 595.28 L2.45 595.28 L23.06 595.28" class="st14"/>
		</g>
		<g id="shape32-129" v:mID="32" v:groupContext="shape" transform="translate(51.0236,-46.2835)">
			<title>Tabelle.32</title>
			<desc>SI</desc>
			<v:textBlock v:margins="rect(0,0,0,0)" v:tabSpace="42.5197"/>
			<v:textRect cx="8.50394" cy="586.772" width="17.01" height="17.0079"/>
			<ellipse cx="8.50394" cy="586.772" rx="8.50394" ry="8.50394" class="st7"/>
			<text x="3.78" y="589.77" class="st10" v:langID="2055"><v:paragraph v:horizAlign="1"/><v:tabList/>SI</text>		</g>
		<g id="shape33-132" v:mID="33" v:groupContext="shape" transform="translate(68.0167,-55.2891)">
			<title>Tabelle.33</title>
			<path d="M0 595.28 L20.24 595.28" class="st11"/>
		</g>
		<g id="shape34-135" v:mID="34" v:groupContext="shape" transform="translate(99.0551,-40.6457)">
			<title>Tabelle.34</title>
			<desc>a service interface, API endpoint</desc>
			<v:textBlock v:margins="rect(4,4,4,4)" v:tabSpace="42.5197"/>
			<v:textRect cx="76" cy="585.276" width="152" height="20"/>
			<rect x="0" y="575.276" width="152" height="20" class="st9"/>
			<text x="4" y="581.68" class="st5" v:langID="2055"><v:paragraph/><v:tabList/>a service interface, API <tspan x="4"
						dy="1.2em" class="st6">endpoint </tspan> </text>		</g>
		<g id="shape35-139" v:mID="35" v:groupContext="shape" transform="translate(264.283,-56.8661)">
			<title>Tabelle.35</title>
			<path d="M0 595.28 L26.08 595.28" class="st12"/>
		</g>
		<g id="shape36-144" v:mID="36" v:groupContext="shape" transform="translate(248.858,-46.6929)">
			<title>Tabelle.36</title>
			<desc>A</desc>
			<v:textBlock v:margins="rect(4,4,4,4)" v:tabSpace="42.5197"/>
			<v:textRect cx="11.3032" cy="585.276" width="22.61" height="20"/>
			<rect x="0" y="575.276" width="22.6063" height="20" class="st9"/>
			<text x="4" y="588.88" class="st5" v:langID="2055"><v:paragraph/><v:tabList/>A</text>		</g>
		<g id="shape37-147" v:mID="37" v:groupContext="shape" transform="translate(291.118,-45.937)">
			<title>Tabelle.37</title>
			<desc>B</desc>
			<v:textBlock v:margins="rect(4,4,4,4)" v:tabSpace="42.5197"/>
			<v:textRect cx="11.3032" cy="585.276" width="22.61" height="20"/>
			<rect x="0" y="575.276" width="22.6063" height="20" class="st9"/>
			<text x="4" y="588.88" class="st5" v:langID="2055"><v:paragraph/><v:tabList/>B</text>		</g>
		<g id="shape38-150" v:mID="38" v:groupContext="shape" transform="translate(313.417,-46.5669)">
			<title>Tabelle.38</title>
			<desc>A uses B</desc>
			<v:textBlock v:margins="rect(4,4,4,4)" v:tabSpace="42.5197"/>
			<v:textRect cx="76" cy="585.984" width="152" height="18.5827"/>
			<rect x="0" y="576.693" width="152" height="18.5827" class="st9"/>
			<text x="4" y="589.58" class="st5" v:langID="2055"><v:paragraph/><v:tabList/>A uses B</text>		</g>
		<g id="shape41-153" v:mID="41" v:groupContext="shape" transform="translate(407.843,-55.5591)">
			<title>Tabelle.41</title>
			<path d="M2.09 595.28 L2.45 595.28 L23.63 595.28" class="st14"/>
		</g>
		<g id="shape42-160" v:mID="42" v:groupContext="shape" transform="translate(392.417,-45.3858)">
			<title>Tabelle.42</title>
			<desc>A</desc>
			<v:textBlock v:margins="rect(4,4,4,4)" v:tabSpace="42.5197"/>
			<v:textRect cx="11.3032" cy="585.276" width="22.61" height="20"/>
			<rect x="0" y="575.276" width="22.6063" height="20" class="st9"/>
			<text x="4" y="588.88" class="st5" v:langID="2055"><v:paragraph/><v:tabList/>A</text>		</g>
		<g id="shape43-163" v:mID="43" v:groupContext="shape" transform="translate(434.677,-44.6299)">
			<title>Tabelle.43</title>
			<desc>B</desc>
			<v:textBlock v:margins="rect(4,4,4,4)" v:tabSpace="42.5197"/>
			<v:textRect cx="11.3032" cy="585.276" width="22.61" height="20"/>
			<rect x="0" y="575.276" width="22.6063" height="20" class="st9"/>
			<text x="4" y="588.88" class="st5" v:langID="2055"><v:paragraph/><v:tabList/>B</text>		</g>
		<g id="shape44-166" v:mID="44" v:groupContext="shape" transform="translate(455.268,-42.0945)">
			<title>Tabelle.44</title>
			<desc>A is technically integrated with B (details are omitted)</desc>
			<v:textBlock v:margins="rect(4,4,4,4)" v:tabSpace="42.5197"/>
			<v:textRect cx="76" cy="585.984" width="152" height="18.5827"/>
			<rect x="0" y="576.693" width="152" height="18.5827" class="st9"/>
			<text x="4" y="582.38" class="st5" v:langID="2055"><v:paragraph/><v:tabList/>A is technically integrated <tspan x="4"
						dy="1.2em" class="st6">with B (details are omitted)</tspan></text>		</g>
	</g>
</svg>
